<svg width="1497" height="560" viewBox="0 0 1497 560" fill="none" xmlns="http://www.w3.org/2000/svg">
<path fill-rule="evenodd" clip-rule="evenodd" d="M242.033 2.78751C240.029 4.15799 237.659 6.53409 236.096 8.71957C232.971 13.4028 227.034 21.2084 225.784 23.3939L224.847 24.3306C224.222 25.8916 222.247 28.9394 219.975 31.7775C194.961 67.1093 186.206 76.1768 155.877 108.069C126.799 138.398 96.76 167.521 58.3238 197.806C53.6337 200.933 50.206 203.529 49.2563 204.372C48.3067 205.216 47.3065 205.903 46.4423 206.561C44.9611 207.689 38.9371 212.504 37.0621 213.752C36.5934 214.065 31.2429 218.309 23.9299 223.133C9.23436 232.825 3.86679 235.118 1.73023 239.391C-2.33453 247.521 0.792205 253.774 10.7977 260.34C22.0539 267.532 19.4238 265.743 21.4286 267.219L22.3666 267.845C25.0905 269.849 31.5362 274.019 37.4673 278.44C44.1148 283.395 48.0189 286.795 51.0789 289.087C52.7671 290.352 51.1844 289.298 53.6112 290.88C55.405 292.048 55.9326 292.461 58.5705 294.253C60.6305 296.017 64.8793 299.513 68.3493 302.367L68.3504 302.368L69.122 303.003C91.3858 320.609 115.654 342.958 142.455 370.157C167.99 396.091 186.561 416.121 193.103 424.766C195.424 427.823 201.122 435.203 205.765 441.001C217.372 455.549 226.471 469.417 232.169 478.273C237.128 485.969 240.611 488.903 246.239 491.405C250.771 493.419 259.7 489.337 263.283 484.224C264.76 482.116 266.505 479.549 267.033 478.917C267.585 478.364 269.466 475.292 271.72 472.044C272.048 471.571 272.635 470.965 272.97 470.483C275.608 466.688 279.195 461.562 281.095 459.243C282.475 457.634 284.597 454.475 287.032 451.438C287.947 450.296 289.008 448.728 289.844 447.691C300.818 433.775 313.557 417.232 316.406 414.597C316.718 413.972 322.031 408.04 328.593 401.171C341.044 387.045 379.841 348.095 397.028 332.797C409.697 320.702 428.59 305.634 442.652 294.082C444.252 292.864 445.776 291.897 447.339 290.96C454.526 285.653 460.932 280.315 462.687 278.911L462.689 278.909L463.012 278.651C464.067 277.807 467.443 275.593 467.443 275.593L470.081 273.484C475.357 269.795 474.526 270.042 479.213 266.608C482.139 264.463 485.263 262.443 487.963 260.676C489.837 259.427 491.456 258.141 492.337 257.553C499.212 251.309 501.355 250.335 499.191 240.955C498.253 236.89 491.374 232.513 481.994 226.885C471.05 219.693 468.862 218.13 452.915 205.936C443.675 198.87 428.527 187.801 416.646 177.17C410.526 171.899 404.064 165.622 401.637 163.725C397.944 160.668 364.691 129.174 360.365 124.641C359.521 123.798 355.103 119.379 350.672 114.635C348.678 112.548 346.92 111.196 343.48 107.131C339.416 103.067 336.654 100.106 334.1 97.4385C323.469 86.8077 311.588 72.7375 305.647 65.546C291.441 48.3491 275.943 25.8367 271.879 19.8959C269.346 16.1007 267.403 13.2312 266.876 12.7045C265.821 11.1228 265.957 11.6859 264.374 9.57776C262.264 6.41473 260.047 3.66217 255.932 1.4483C251.555 -1.05307 245.927 -0.115051 242.033 2.78751ZM276.402 72.5429C273.342 70.0124 267.597 66.6462 259.789 64.2215C246.81 60.11 234.506 65.4948 222.319 73.6123C218.31 76.775 214.84 79.4268 213.257 80.481C210.302 82.3786 208.245 83.9397 201.07 90.1596C198.96 91.9518 194.629 95.2483 193.258 96.0917C182.008 105.146 147.869 138.001 137.634 148.543C118.885 167.856 112.948 175.082 104.47 184.93C100.46 189.569 97.9564 193.182 97.3233 193.814C96.6902 194.341 94.3283 197.423 92.3235 200.059C90.3187 202.694 87.3358 206.704 86.3862 207.864C79.0001 216.719 69.1181 230.388 67.3244 235.026C64.512 241.271 62.637 244.705 66.6994 255.008C67.568 257.211 68.8868 260.316 70.4493 263.126L73.5742 268.433L76.6991 273.116C77.7542 274.803 79.6981 277.986 81.3864 279.673C82.8636 281.676 83.241 282.357 84.8238 284.044C87.0112 286.376 117.635 324.319 137.322 341.179C181.383 387.074 228.256 424.98 241.068 426.725C247.943 427.662 252.631 432.657 272.63 418.608C274.107 417.448 280.572 413.045 286.692 408.617C292.812 404.189 297.625 399.984 297.942 399.563C298.258 399.247 300.754 397.69 303.879 394.567C307.361 391.826 310.539 389.268 311.066 388.635C311.699 388.003 317.056 383.267 321.066 379.893C337.94 365.696 368.877 337.12 392.626 309.333C394.42 307.119 398.32 302.61 401.063 299.342C405.811 294.071 418.538 279.081 420.437 276.551C428.984 264.638 435.011 256.865 435.749 250.013C436.066 245.901 435.894 240.488 433.256 234.9C431.463 231.21 428.93 226.783 427.559 224.991C409.813 198.185 390.414 178.281 384.189 172.272C383.344 171.428 379.85 167.84 377.001 164.466C370.127 156.973 342.057 128.498 332.683 119.444C328.568 115.754 323.552 111.038 320.176 107.875C316.799 104.712 313.297 101.62 312.672 100.683C311.722 100.156 305.929 96.2293 303.292 93.8046C296.539 87.7955 284.336 78.0728 283.281 77.5457C281.698 76.4915 278.09 73.7022 276.402 72.5429Z" fill="#00629B"/>
<path d="M241.693 76.1117C237.943 77.0483 228.256 85.1659 216.381 93.5956C208.569 99.5277 207.815 100.333 205.444 102.026C203.317 103.544 202.632 104.211 199.819 106.397C199.194 106.709 195.757 109.519 192.945 112.016C190.132 114.514 188.632 115.537 187.32 117.012C186.476 117.961 181.021 122.688 176.695 126.378C159.508 140.74 127.634 174.147 118.26 184.45C114.778 188.561 111.3 193.172 109.823 194.753C104.863 200.024 88.3216 220.371 83.5734 227.223C74.5112 238.15 74.1631 248.902 81.2327 260.288C86.825 269.143 111.938 299.188 126.815 314.791C133.252 321.433 143.884 332.536 143.884 332.751C153.883 343.991 196.382 381.768 210.132 392.696C241.453 417.589 238.256 415.8 252.943 416.736C258.88 415.8 261.38 414.551 280.754 399.877C294.191 389.886 295.806 387.936 307.941 377.71C314.191 372.09 321.426 366.004 325.753 361.787C331.377 356.791 337.798 350.58 340.752 348.05C354.189 337.122 379.188 309.647 388.875 298.408C390.564 296.088 394.188 292.163 394.5 291.851C395.125 291.227 403.944 280.551 406.687 277.177C410.75 271.557 416.375 266.25 421.687 255.947C424.536 250.043 424.751 240.523 421.374 234.092C417.681 227.028 393.522 197.437 380.438 182.889C376.534 178.566 369.749 172.318 366.689 168.839C354.554 155.24 336.74 138.12 303.291 108.813C284.843 94.43 268.897 82.1695 261.706 77.8584C253.894 73.1752 248.568 72.9895 241.693 76.1117ZM260.293 115.754C271.688 137.892 277.386 149.489 278.125 151.597C278.652 153.178 278.019 153.495 273.693 153.495C265.568 153.495 266.518 150.438 264.091 188.284C263.458 197.878 262.72 208.104 262.297 211.055C262.297 215.695 262.005 216.943 262.63 218.192C264.424 219.668 280.974 220.333 282.556 219.173C284.139 218.013 290.365 201.989 290.365 199.037C290.365 197.14 289.732 196.718 287.305 196.718C283.19 196.718 277.703 195.558 277.703 194.715C277.703 194.293 279.602 192.606 282.029 190.814C284.35 189.127 288.149 186.281 290.365 184.594C302.604 175.106 313.473 167.305 316.638 165.618C316.638 165.618 319.839 163.55 320.226 163.826C320.612 164.102 320.542 164.564 320.226 166.145C319.909 167.727 319.909 168.254 319.909 168.254C319.487 170.784 318.326 174.368 317.799 176.161C317.271 177.847 315.477 183.856 313.789 189.338C312.101 194.82 309.568 203.359 308.302 208.314C303.449 226.658 298.067 242.787 296.59 243.736C296.062 244.053 290.154 243.525 283.295 242.577C276.542 241.733 268.734 240.995 265.991 240.995C261.137 240.995 261.031 240.995 260.398 244.896C260.082 247.11 259.449 263.029 259.132 280.212L258.71 310.574H262.403C277.175 310.047 302.288 305.197 313.473 299.716C320.753 296.131 326.24 290.017 326.24 285.589C327.295 281.056 319.108 275.403 313.473 272.622C312.628 272.205 311.757 270.762 308.566 272.622C302.316 276.264 303.566 276.264 300.754 276.888C298.566 277.374 295.892 271.041 293.254 265.769C286.923 251.01 290.737 252.429 296.59 253.16C300.811 253.687 326.573 262.409 327.628 263.463C328.462 264.297 326.378 264.4 324.503 265.024C322.628 265.649 323.253 265.336 322.547 265.769C321.841 266.202 324.341 267.245 325.29 267.878C337.847 275.679 340.485 279.474 340.485 287.592C340.485 291.598 339.957 293.706 335.314 298.872C324.657 309.731 305.559 317.426 273.482 321.116C265.568 322.026 258.685 322.784 257.63 322.784C257.63 323.311 257.127 334.189 256.494 348.104C254.505 399.588 253.568 399.588 251.693 400.213C245.755 401.149 247.318 399.588 245.626 378.255C245.309 367.397 244.676 350.107 244.36 339.776L243.568 322.471C243.568 322.471 237.318 322.034 234.969 321.643C232.62 321.252 232.651 321.357 230.748 321.116C228.845 320.875 226.95 320.695 223.784 320.167C220.619 319.64 214.815 318.586 210.7 317.954C203.631 316.689 199.727 315.845 190.652 313.526C182.844 311.523 165.54 303.932 161.214 300.559C154.777 295.709 152.139 291.176 152.139 285.062C152.139 278.209 154.566 273.465 160.58 268.194C169.549 260.498 191.18 250.483 198.883 250.483C199.094 250.483 204.58 252.592 208.59 255.227C212.705 257.863 217.031 260.393 218.403 261.026C219.669 261.553 221.252 262.607 220.724 263.556C219.669 264.715 218.72 265.98 209.118 269.038C200.676 271.568 196.456 273.992 191.496 278.736C179.362 290.544 187.803 299.926 217.031 306.884C221.146 307.833 226 308.465 228.11 308.993C230.115 309.414 231.276 309.52 235.497 310.047C239.717 310.574 242.777 310.574 242.777 310.574V298.661C242.672 292.231 242.144 276.628 241.511 264.188C241.511 264.188 241.511 242.577 240.245 241.522C238.979 240.468 234.969 240.991 234.969 240.991C234.969 240.991 224.101 241.628 217.242 242.577C209.118 243.736 203.842 244.158 203.736 243.42C202.259 241.522 196.35 222.441 193.712 211.477C192.868 207.682 191.708 204.097 191.285 202.516C190.236 198.586 184.532 180.694 181.895 171.206C180.101 159.82 179.573 160.667 189.175 167.832C192.938 170.64 197.042 174.052 197.194 174.158C198.566 175.106 200.149 176.16 202.259 177.742C204.369 179.323 205.952 180.483 206.48 180.904C209.177 183.061 208.696 182.697 209.118 183.013C211.755 185.121 223.046 194.715 222.413 195.453C222.096 195.664 219.353 196.191 216.293 196.612C209.751 197.35 209.751 197.35 213.971 209.685C216.187 216.326 217.348 218.119 219.564 219.067C222.413 220.122 235.391 219.7 237.501 218.435C238.979 217.486 238.979 211.161 237.607 190.92C235.708 164.248 234.652 155.287 233.175 154.444C232.437 153.916 229.799 153.495 227.266 153.495H222.624L223.362 150.016C223.784 148.224 225.473 144.218 227.055 141.371C229.482 136.943 240.772 115.332 247.525 102.049C248.58 100.151 249.952 98.6751 250.585 98.886C251.324 99.0968 255.65 106.687 260.293 115.754Z" fill="#00629B"/>
<path d="M583 107.003H662.2V387.003H583V107.003ZM943.347 325.803V387.003H718.547V107.003H938.147V168.203H796.947V215.403H921.347V274.603H796.947V325.803H943.347ZM1212.1 325.803V387.003H987.297V107.003H1206.9V168.203H1065.7V215.403H1190.1V274.603H1065.7V325.803H1212.1ZM1480.85 325.803V387.003H1256.05V107.003H1475.65V168.203H1334.45V215.403H1458.85V274.603H1334.45V325.803H1480.85Z" fill="#00629B"/>
<path d="M506.721 459.616V505.808C506.721 513.946 504.263 520.342 499.348 524.997C494.432 529.652 487.678 531.979 479.084 531.979C470.49 531.979 463.833 529.636 459.113 524.948C454.426 520.261 452.082 513.815 452.082 505.612V459.616H460.383V506.198C460.383 512.155 462.01 516.729 465.266 519.919C468.521 523.109 473.306 524.704 479.621 524.704C485.643 524.704 490.282 523.109 493.537 519.919C496.792 516.696 498.42 512.09 498.42 506.101V459.616H506.721ZM557.732 466.013C549.887 466.013 543.686 468.633 539.129 473.874C534.604 479.082 532.342 486.228 532.342 495.31C532.342 504.652 534.523 511.879 538.885 516.989C543.279 522.067 549.529 524.606 557.635 524.606C562.615 524.606 568.296 523.711 574.676 521.921V529.196C569.728 531.052 563.624 531.979 556.365 531.979C545.851 531.979 537.729 528.789 532 522.409C526.303 516.029 523.455 506.963 523.455 495.212C523.455 487.855 524.822 481.41 527.557 475.876C530.324 470.342 534.295 466.078 539.471 463.083C544.679 460.088 550.799 458.591 557.83 458.591C565.317 458.591 571.86 459.958 577.459 462.692L573.943 469.821C568.54 467.282 563.136 466.013 557.732 466.013ZM659.512 512.009C659.512 518.291 657.233 523.19 652.676 526.706C648.118 530.222 641.934 531.979 634.121 531.979C625.658 531.979 619.147 530.889 614.59 528.708V520.7C617.52 521.937 620.71 522.914 624.16 523.63C627.611 524.346 631.029 524.704 634.414 524.704C639.948 524.704 644.115 523.662 646.914 521.579C649.714 519.463 651.113 516.534 651.113 512.79C651.113 510.316 650.609 508.298 649.6 506.735C648.623 505.14 646.963 503.675 644.619 502.341C642.308 501.006 638.776 499.493 634.023 497.8C627.383 495.424 622.63 492.608 619.766 489.353C616.934 486.097 615.518 481.849 615.518 476.608C615.518 471.107 617.585 466.729 621.719 463.474C625.853 460.218 631.322 458.591 638.125 458.591C645.221 458.591 651.748 459.893 657.705 462.497L655.117 469.724C649.225 467.25 643.496 466.013 637.93 466.013C633.535 466.013 630.101 466.957 627.627 468.845C625.153 470.733 623.916 473.353 623.916 476.706C623.916 479.18 624.372 481.215 625.283 482.81C626.195 484.372 627.725 485.821 629.873 487.155C632.054 488.457 635.374 489.906 639.834 491.501C647.321 494.17 652.464 497.035 655.264 500.095C658.096 503.155 659.512 507.126 659.512 512.009ZM707.301 531.003L705.689 523.386H705.299C702.63 526.739 699.96 529.017 697.291 530.222C694.654 531.394 691.35 531.979 687.379 531.979C682.073 531.979 677.906 530.612 674.879 527.878C671.884 525.144 670.387 521.254 670.387 516.208C670.387 505.401 679.029 499.737 696.314 499.216L705.396 498.923V495.603C705.396 491.403 704.485 488.311 702.662 486.325C700.872 484.307 697.991 483.298 694.02 483.298C689.56 483.298 684.514 484.665 678.883 487.399L676.393 481.198C679.029 479.766 681.91 478.643 685.035 477.829C688.193 477.015 691.35 476.608 694.508 476.608C700.888 476.608 705.608 478.024 708.668 480.856C711.76 483.688 713.307 488.229 713.307 494.479V531.003H707.301ZM688.99 525.29C694.036 525.29 697.991 523.907 700.855 521.14C703.753 518.373 705.201 514.499 705.201 509.519V504.685L697.096 505.026C690.65 505.254 685.995 506.263 683.131 508.054C680.299 509.812 678.883 512.562 678.883 516.306C678.883 519.235 679.762 521.465 681.52 522.995C683.31 524.525 685.8 525.29 688.99 525.29ZM768.176 531.003V496.384C768.176 492.022 767.183 488.767 765.197 486.618C763.212 484.47 760.103 483.396 755.871 483.396C750.272 483.396 746.171 484.909 743.566 487.937C740.962 490.964 739.66 495.961 739.66 502.927V531.003H731.555V477.487H738.146L739.465 484.812H739.855C741.516 482.175 743.843 480.14 746.838 478.708C749.833 477.243 753.169 476.511 756.848 476.511C763.293 476.511 768.143 478.073 771.398 481.198C774.654 484.291 776.281 489.255 776.281 496.091V531.003H768.176ZM880.16 494.626C880.16 506.41 876.954 515.427 870.541 521.677C864.161 527.894 854.965 531.003 842.953 531.003H823.178V459.616H845.053C856.153 459.616 864.779 462.692 870.932 468.845C877.084 474.997 880.16 483.591 880.16 494.626ZM871.371 494.919C871.371 485.609 869.027 478.594 864.34 473.874C859.685 469.154 852.751 466.794 843.539 466.794H831.479V523.825H841.586C851.482 523.825 858.92 521.4 863.9 516.55C868.881 511.667 871.371 504.457 871.371 494.919ZM904.512 531.003H896.406V477.487H904.512V531.003ZM895.723 462.985C895.723 461.13 896.178 459.779 897.09 458.933C898.001 458.054 899.141 457.614 900.508 457.614C901.81 457.614 902.933 458.054 903.877 458.933C904.821 459.812 905.293 461.162 905.293 462.985C905.293 464.808 904.821 466.175 903.877 467.087C902.933 467.966 901.81 468.405 900.508 468.405C899.141 468.405 898.001 467.966 897.09 467.087C896.178 466.175 895.723 464.808 895.723 462.985ZM945.807 531.979C937.896 531.979 931.646 529.571 927.057 524.753C922.499 519.935 920.221 513.246 920.221 504.685C920.221 496.058 922.337 489.206 926.568 484.128C930.833 479.05 936.546 476.511 943.707 476.511C950.413 476.511 955.719 478.724 959.625 483.151C963.531 487.546 965.484 493.356 965.484 500.583V505.71H928.619C928.782 511.993 930.361 516.761 933.355 520.017C936.383 523.272 940.631 524.899 946.1 524.899C951.861 524.899 957.558 523.695 963.189 521.286V528.513C960.325 529.75 957.607 530.629 955.035 531.149C952.496 531.703 949.42 531.979 945.807 531.979ZM943.609 483.298C939.312 483.298 935.878 484.698 933.307 487.497C930.768 490.297 929.27 494.17 928.814 499.118H956.793C956.793 494.007 955.654 490.101 953.375 487.399C951.096 484.665 947.841 483.298 943.609 483.298ZM1024.65 477.487V482.614L1014.74 483.786C1015.65 484.925 1016.46 486.423 1017.18 488.278C1017.9 490.101 1018.25 492.168 1018.25 494.479C1018.25 499.72 1016.46 503.903 1012.88 507.028C1009.3 510.153 1004.39 511.716 998.137 511.716C996.542 511.716 995.044 511.586 993.645 511.325C990.194 513.148 988.469 515.443 988.469 518.21C988.469 519.675 989.071 520.765 990.275 521.481C991.48 522.165 993.547 522.507 996.477 522.507H1005.95C1011.74 522.507 1016.19 523.728 1019.28 526.169C1022.4 528.61 1023.97 532.159 1023.97 536.813C1023.97 542.738 1021.59 547.246 1016.84 550.339C1012.09 553.464 1005.15 555.026 996.037 555.026C989.038 555.026 983.635 553.724 979.826 551.12C976.05 548.516 974.162 544.838 974.162 540.085C974.162 536.83 975.204 534.014 977.287 531.638C979.37 529.261 982.3 527.65 986.076 526.804C984.709 526.185 983.553 525.225 982.609 523.923C981.698 522.621 981.242 521.107 981.242 519.382C981.242 517.429 981.763 515.72 982.805 514.255C983.846 512.79 985.49 511.374 987.736 510.007C984.969 508.868 982.707 506.931 980.949 504.196C979.224 501.462 978.361 498.337 978.361 494.821C978.361 488.962 980.119 484.453 983.635 481.296C987.15 478.106 992.131 476.511 998.576 476.511C1001.38 476.511 1003.9 476.836 1006.14 477.487H1024.65ZM981.975 539.987C981.975 542.884 983.195 545.082 985.637 546.579C988.078 548.076 991.577 548.825 996.135 548.825C1002.94 548.825 1007.97 547.8 1011.22 545.749C1014.51 543.731 1016.15 540.98 1016.15 537.497C1016.15 534.6 1015.26 532.582 1013.47 531.442C1011.68 530.336 1008.31 529.782 1003.36 529.782H993.645C989.966 529.782 987.102 530.661 985.051 532.419C983 534.177 981.975 536.7 981.975 539.987ZM986.369 494.626C986.369 498.369 987.427 501.201 989.543 503.122C991.659 505.043 994.605 506.003 998.381 506.003C1006.29 506.003 1010.25 502.162 1010.25 494.479C1010.25 486.439 1006.24 482.419 998.234 482.419C994.426 482.419 991.496 483.444 989.445 485.495C987.395 487.546 986.369 490.59 986.369 494.626ZM1083.33 504.196C1083.33 512.92 1081.13 519.74 1076.74 524.655C1072.34 529.538 1066.27 531.979 1058.52 531.979C1053.74 531.979 1049.49 530.856 1045.78 528.61C1042.07 526.364 1039.2 523.142 1037.19 518.942C1035.17 514.743 1034.16 509.828 1034.16 504.196C1034.16 495.472 1036.34 488.685 1040.7 483.835C1045.06 478.952 1051.12 476.511 1058.87 476.511C1066.35 476.511 1072.29 479.001 1076.69 483.981C1081.11 488.962 1083.33 495.7 1083.33 504.196ZM1042.56 504.196C1042.56 511.032 1043.92 516.241 1046.66 519.821C1049.39 523.402 1053.41 525.192 1058.72 525.192C1064.02 525.192 1068.04 523.418 1070.78 519.87C1073.55 516.289 1074.93 511.065 1074.93 504.196C1074.93 497.393 1073.55 492.233 1070.78 488.718C1068.04 485.17 1063.99 483.396 1058.62 483.396C1053.32 483.396 1049.31 485.137 1046.61 488.62C1043.91 492.103 1042.56 497.295 1042.56 504.196ZM1127.78 459.616H1147.95C1157.42 459.616 1164.27 461.032 1168.51 463.864C1172.74 466.696 1174.85 471.172 1174.85 477.292C1174.85 481.524 1173.67 485.023 1171.29 487.79C1168.95 490.524 1165.51 492.299 1160.99 493.112V493.601C1171.83 495.456 1177.25 501.153 1177.25 510.69C1177.25 517.071 1175.08 522.051 1170.75 525.632C1166.46 529.213 1160.43 531.003 1152.69 531.003H1127.78V459.616ZM1136.08 490.183H1149.76C1155.62 490.183 1159.83 489.271 1162.4 487.448C1164.97 485.593 1166.26 482.484 1166.26 478.122C1166.26 474.118 1164.83 471.237 1161.96 469.479C1159.1 467.689 1154.54 466.794 1148.29 466.794H1136.08V490.183ZM1136.08 497.214V523.923H1150.98C1156.74 523.923 1161.07 522.816 1163.96 520.603C1166.89 518.356 1168.36 514.857 1168.36 510.104C1168.36 505.677 1166.86 502.422 1163.87 500.339C1160.9 498.256 1156.38 497.214 1150.29 497.214H1136.08ZM1217.32 476.511C1219.7 476.511 1221.83 476.706 1223.72 477.097L1222.59 484.616C1220.38 484.128 1218.43 483.884 1216.73 483.884C1212.4 483.884 1208.69 485.642 1205.6 489.157C1202.54 492.673 1201.01 497.051 1201.01 502.292V531.003H1192.91V477.487H1199.6L1200.52 487.399H1200.91C1202.9 483.916 1205.29 481.231 1208.09 479.343C1210.89 477.455 1213.97 476.511 1217.32 476.511ZM1268.14 531.003L1266.53 523.386H1266.13C1263.47 526.739 1260.8 529.017 1258.13 530.222C1255.49 531.394 1252.19 531.979 1248.21 531.979C1242.91 531.979 1238.74 530.612 1235.71 527.878C1232.72 525.144 1231.22 521.254 1231.22 516.208C1231.22 505.401 1239.87 499.737 1257.15 499.216L1266.23 498.923V495.603C1266.23 491.403 1265.32 488.311 1263.5 486.325C1261.71 484.307 1258.83 483.298 1254.86 483.298C1250.4 483.298 1245.35 484.665 1239.72 487.399L1237.23 481.198C1239.87 479.766 1242.75 478.643 1245.87 477.829C1249.03 477.015 1252.19 476.608 1255.34 476.608C1261.72 476.608 1266.44 478.024 1269.5 480.856C1272.6 483.688 1274.14 488.229 1274.14 494.479V531.003H1268.14ZM1249.83 525.29C1254.87 525.29 1258.83 523.907 1261.69 521.14C1264.59 518.373 1266.04 514.499 1266.04 509.519V504.685L1257.93 505.026C1251.49 505.254 1246.83 506.263 1243.97 508.054C1241.13 509.812 1239.72 512.562 1239.72 516.306C1239.72 519.235 1240.6 521.465 1242.36 522.995C1244.15 524.525 1246.64 525.29 1249.83 525.29ZM1329.01 531.003V496.384C1329.01 492.022 1328.02 488.767 1326.03 486.618C1324.05 484.47 1320.94 483.396 1316.71 483.396C1311.11 483.396 1307.01 484.909 1304.4 487.937C1301.8 490.964 1300.5 495.961 1300.5 502.927V531.003H1292.39V477.487H1298.98L1300.3 484.812H1300.69C1302.35 482.175 1304.68 480.14 1307.67 478.708C1310.67 477.243 1314.01 476.511 1317.68 476.511C1324.13 476.511 1328.98 478.073 1332.23 481.198C1335.49 484.291 1337.12 489.255 1337.12 496.091V531.003H1329.01ZM1376.7 531.979C1368.96 531.979 1362.95 529.603 1358.69 524.851C1354.45 520.065 1352.34 513.311 1352.34 504.587C1352.34 495.635 1354.49 488.718 1358.78 483.835C1363.11 478.952 1369.26 476.511 1377.24 476.511C1379.81 476.511 1382.38 476.787 1384.96 477.341C1387.53 477.894 1389.54 478.545 1391.01 479.294L1388.52 486.179C1386.73 485.463 1384.78 484.877 1382.66 484.421C1380.54 483.933 1378.67 483.688 1377.04 483.688C1366.17 483.688 1360.74 490.622 1360.74 504.489C1360.74 511.065 1362.05 516.11 1364.69 519.626C1367.36 523.142 1371.3 524.899 1376.51 524.899C1380.97 524.899 1385.54 523.939 1390.23 522.019V529.196C1386.65 531.052 1382.14 531.979 1376.7 531.979ZM1441.09 531.003V496.384C1441.09 492.022 1440.1 488.767 1438.12 486.618C1436.13 484.47 1433.02 483.396 1428.79 483.396C1423.16 483.396 1419.04 484.925 1416.44 487.985C1413.86 491.045 1412.58 496.058 1412.58 503.024V531.003H1404.47V455.026H1412.58V478.024C1412.58 480.791 1412.45 483.086 1412.19 484.909H1412.68C1414.27 482.338 1416.53 480.319 1419.46 478.854C1422.43 477.357 1425.79 476.608 1429.57 476.608C1436.11 476.608 1441.01 478.171 1444.27 481.296C1447.56 484.388 1449.2 489.32 1449.2 496.091V531.003H1441.09Z" fill="#00629B"/>
</svg>
