<svg width="500" height="492" viewBox="0 0 500 492" fill="none" xmlns="http://www.w3.org/2000/svg">
<path fill-rule="evenodd" clip-rule="evenodd" d="M242.033 2.78165C240.029 4.15213 237.659 6.52823 236.096 8.71371C232.971 13.3969 227.034 21.2026 225.784 23.3881L224.847 24.3247C224.222 25.8858 222.247 28.9336 219.975 31.7716C194.961 67.1035 186.206 76.171 155.877 108.063C126.799 138.393 96.76 167.516 58.3238 197.8C53.6337 200.927 50.206 203.523 49.2563 204.366C48.3067 205.21 47.3065 205.897 46.4423 206.555C44.9611 207.683 38.9371 212.498 37.0621 213.747C36.5934 214.059 31.2429 218.303 23.9299 223.127C9.23436 232.819 3.86679 235.112 1.73023 239.386C-2.33453 247.515 0.792205 253.768 10.7977 260.335C22.0539 267.526 19.4238 265.737 21.4286 267.213L22.3666 267.839C25.0905 269.843 31.5362 274.013 37.4673 278.434C44.1148 283.389 48.0189 286.789 51.0789 289.081C52.7671 290.346 51.1844 289.292 53.6112 290.874C55.405 292.043 55.9326 292.455 58.5705 294.247C60.6305 296.011 64.8793 299.507 68.3493 302.361L68.3504 302.362L69.122 302.997C91.3858 320.603 115.654 342.952 142.455 370.151C167.99 396.085 186.561 416.115 193.103 424.76C195.424 427.817 201.122 435.197 205.765 440.995C217.372 455.543 226.471 469.411 232.169 478.267C237.128 485.963 240.611 488.898 246.239 491.399C250.771 493.413 259.7 489.331 263.283 484.218C264.76 482.11 266.505 479.543 267.033 478.911C267.585 478.358 269.466 475.286 271.72 472.038C272.048 471.565 272.635 470.959 272.97 470.477C275.608 466.682 279.195 461.557 281.095 459.237C282.475 457.628 284.597 454.469 287.032 451.432C287.947 450.29 289.008 448.722 289.844 447.685C300.818 433.77 313.557 417.226 316.406 414.591C316.718 413.966 322.031 408.034 328.593 401.166C341.044 387.039 379.841 348.089 397.028 332.791C409.697 320.696 428.59 305.628 442.652 294.076C444.252 292.858 445.776 291.891 447.339 290.954C454.526 285.647 460.932 280.309 462.687 278.905L462.689 278.903L463.012 278.645C464.067 277.801 467.443 275.587 467.443 275.587L470.081 273.479C475.357 269.789 474.526 270.036 479.213 266.602C482.139 264.457 485.263 262.438 487.963 260.67C489.837 259.421 491.456 258.135 492.337 257.548C499.212 251.303 501.355 250.329 499.191 240.949C498.253 236.884 491.374 232.507 481.994 226.879C471.05 219.687 468.862 218.124 452.915 205.93C443.675 198.864 428.527 187.795 416.646 177.164C410.526 171.893 404.064 165.617 401.637 163.719C397.944 160.662 364.691 129.168 360.365 124.635C359.521 123.792 355.103 119.374 350.672 114.63C348.678 112.542 346.92 111.19 343.48 107.125C339.416 103.061 336.654 100.1 334.1 97.4326C323.469 86.8018 311.588 72.7316 305.647 65.5401C291.441 48.3432 275.943 25.8308 271.879 19.8901C269.346 16.0949 267.403 13.2254 266.876 12.6986C265.821 11.1169 265.957 11.68 264.374 9.5719C262.264 6.40887 260.047 3.65631 255.932 1.44244C251.555 -1.05893 245.927 -0.120911 242.033 2.78165ZM276.402 72.5371C273.342 70.0065 267.597 66.6404 259.789 64.2156C246.81 60.1042 234.506 65.4889 222.319 73.6065C218.31 76.7691 214.84 79.421 213.257 80.4752C210.302 82.3728 208.245 83.9338 201.07 90.1537C198.96 91.946 194.629 95.2424 193.258 96.0858C182.008 105.14 147.869 137.995 137.634 148.538C118.885 167.85 112.948 175.076 104.47 184.924C100.46 189.563 97.9564 193.176 97.3233 193.808C96.6902 194.336 94.3283 197.417 92.3235 200.053C90.3187 202.688 87.3358 206.698 86.3862 207.858C79.0001 216.714 69.1181 230.382 67.3244 235.021C64.512 241.265 62.637 244.699 66.6994 255.002C67.568 257.205 68.8868 260.31 70.4493 263.12L73.5742 268.427L76.6991 273.111C77.7542 274.797 79.6981 277.98 81.3864 279.667C82.8636 281.67 83.241 282.351 84.8238 284.038C87.0112 286.37 117.635 324.314 137.322 341.173C181.383 387.068 228.256 424.974 241.068 426.719C247.943 427.656 252.631 432.652 272.63 418.602C274.107 417.442 280.572 413.039 286.692 408.611C292.812 404.183 297.625 399.979 297.942 399.557C298.258 399.241 300.754 397.684 303.879 394.562C307.361 391.821 310.539 389.262 311.066 388.629C311.699 387.997 317.056 383.261 321.066 379.887C337.94 365.69 368.877 337.114 392.626 309.327C394.42 307.113 398.32 302.605 401.063 299.337C405.811 294.065 418.538 279.075 420.437 276.545C428.984 264.632 435.011 256.859 435.749 250.007C436.066 245.895 435.894 240.482 433.256 234.894C431.463 231.205 428.93 226.777 427.559 224.985C409.813 198.179 390.414 178.275 384.189 172.266C383.344 171.422 379.85 167.834 377.001 164.46C370.127 156.967 342.057 128.492 332.683 119.438C328.568 115.748 323.552 111.032 320.176 107.869C316.799 104.706 313.297 101.614 312.672 100.678C311.722 100.15 305.929 96.2235 303.292 93.7988C296.539 87.7897 284.336 78.067 283.281 77.5398C281.698 76.4856 278.09 73.6963 276.402 72.5371Z" fill="#00629B"/>
<path d="M241.693 76.1058C237.943 77.0424 228.256 85.16 216.381 93.5898C208.569 99.5218 207.815 100.328 205.444 102.02C203.317 103.538 202.632 104.205 199.819 106.391C199.194 106.703 195.757 109.513 192.945 112.011C190.132 114.508 188.632 115.531 187.32 117.006C186.476 117.955 181.021 122.683 176.695 126.372C159.508 140.734 127.634 174.141 118.26 184.444C114.778 188.555 111.3 193.166 109.823 194.747C104.863 200.018 88.3216 220.365 83.5734 227.217C74.5112 238.145 74.1631 248.896 81.2327 260.282C86.825 269.137 111.938 299.183 126.815 314.785C133.252 321.427 143.884 332.53 143.884 332.745C153.883 343.985 196.382 381.763 210.132 392.69C241.453 417.583 238.256 415.794 252.943 416.73C258.88 415.794 261.38 414.545 280.754 399.871C294.191 389.88 295.806 387.93 307.941 377.704C314.191 372.084 321.426 365.998 325.753 361.781C331.377 356.786 337.798 350.574 340.752 348.044C354.189 337.116 379.188 309.641 388.875 298.402C390.564 296.082 394.188 292.157 394.5 291.845C395.125 291.221 403.944 280.545 406.687 277.171C410.75 271.551 416.375 266.244 421.687 255.941C424.536 250.037 424.751 240.517 421.374 234.086C417.681 227.023 393.522 197.431 380.438 182.883C376.534 178.561 369.749 172.312 366.689 168.833C354.554 155.234 336.74 138.114 303.291 108.807C284.843 94.4242 268.897 82.1636 261.706 77.8526C253.894 73.1694 248.568 72.9837 241.693 76.1058ZM260.293 115.748C271.688 137.886 277.386 149.483 278.125 151.591C278.652 153.173 278.019 153.489 273.693 153.489C265.568 153.489 266.518 150.432 264.091 188.278C263.458 197.872 262.72 208.098 262.297 211.049C262.297 215.689 262.005 216.938 262.63 218.186C264.424 219.662 280.974 220.327 282.556 219.167C284.139 218.007 290.365 201.983 290.365 199.031C290.365 197.134 289.732 196.712 287.305 196.712C283.19 196.712 277.703 195.552 277.703 194.709C277.703 194.287 279.602 192.601 282.029 190.808C284.35 189.122 288.149 186.275 290.365 184.588C302.604 175.1 313.473 167.299 316.638 165.612C316.638 165.612 319.839 163.544 320.226 163.82C320.612 164.096 320.542 164.558 320.226 166.139C319.909 167.721 319.909 168.248 319.909 168.248C319.487 170.778 318.326 174.363 317.799 176.155C317.271 177.841 315.477 183.851 313.789 189.332C312.101 194.814 309.568 203.354 308.302 208.308C303.449 226.652 298.067 242.782 296.59 243.73C296.062 244.047 290.154 243.52 283.295 242.571C276.542 241.727 268.734 240.989 265.991 240.989C261.137 240.989 261.031 240.989 260.398 244.89C260.082 247.104 259.449 263.023 259.132 280.207L258.71 310.568H262.403C277.175 310.041 302.288 305.192 313.473 299.71C320.753 296.125 326.24 290.011 326.24 285.583C327.295 281.05 319.108 275.397 313.473 272.616C312.628 272.199 311.757 270.756 308.566 272.616C302.316 276.258 303.566 276.258 300.754 276.883C298.566 277.368 295.892 271.035 293.254 265.764C286.923 251.004 290.737 252.423 296.59 253.154C300.811 253.681 326.573 262.403 327.628 263.457C328.462 264.291 326.378 264.394 324.503 265.018C322.628 265.643 323.253 265.331 322.547 265.764C321.841 266.197 324.341 267.24 325.29 267.872C337.847 275.673 340.485 279.468 340.485 287.586C340.485 291.592 339.957 293.701 335.314 298.866C324.657 309.725 305.559 317.42 273.482 321.11C265.568 322.021 258.685 322.778 257.63 322.778C257.63 323.305 257.127 334.183 256.494 348.099C254.505 399.582 253.568 399.582 251.693 400.207C245.755 401.143 247.318 399.582 245.626 378.249C245.309 367.391 244.676 350.102 244.36 339.77L243.568 322.466C243.568 322.466 237.318 322.029 234.969 321.637C232.62 321.246 232.651 321.351 230.748 321.11C228.845 320.869 226.95 320.689 223.784 320.162C220.619 319.634 214.815 318.58 210.7 317.948C203.631 316.683 199.727 315.839 190.652 313.52C182.844 311.517 165.54 303.927 161.214 300.553C154.777 295.704 152.139 291.17 152.139 285.056C152.139 278.204 154.566 273.459 160.58 268.188C169.549 260.493 191.18 250.477 198.883 250.477C199.094 250.477 204.58 252.586 208.59 255.221C212.705 257.857 217.031 260.387 218.403 261.02C219.669 261.547 221.252 262.601 220.724 263.55C219.669 264.709 218.72 265.975 209.118 269.032C200.676 271.562 196.456 273.987 191.496 278.731C179.362 290.538 187.803 299.921 217.031 306.878C221.146 307.827 226 308.46 228.11 308.987C230.115 309.408 231.276 309.514 235.497 310.041C239.717 310.568 242.777 310.568 242.777 310.568V298.655C242.672 292.225 242.144 276.622 241.511 264.182C241.511 264.182 241.511 242.571 240.245 241.517C238.979 240.462 234.969 240.985 234.969 240.985C234.969 240.985 224.101 241.622 217.242 242.571C209.118 243.73 203.842 244.152 203.736 243.414C202.259 241.516 196.35 222.435 193.712 211.471C192.868 207.676 191.708 204.092 191.285 202.51C190.236 198.58 184.532 180.688 181.895 171.2C180.101 159.814 179.573 160.662 189.175 167.826C192.938 170.634 197.042 174.046 197.194 174.152C198.566 175.1 200.149 176.155 202.259 177.736C204.369 179.317 205.952 180.477 206.48 180.899C209.177 183.055 208.696 182.691 209.118 183.007C211.755 185.116 223.046 194.709 222.413 195.447C222.096 195.658 219.353 196.185 216.293 196.607C209.751 197.345 209.751 197.345 213.971 209.679C216.187 216.321 217.348 218.113 219.564 219.062C222.413 220.116 235.391 219.694 237.501 218.429C238.979 217.48 238.979 211.155 237.607 190.914C235.708 164.242 234.652 155.281 233.175 154.438C232.437 153.911 229.799 153.489 227.266 153.489H222.624L223.362 150.01C223.784 148.218 225.473 144.212 227.055 141.365C229.482 136.938 240.772 115.326 247.525 102.043C248.58 100.145 249.952 98.6693 250.585 98.8801C251.324 99.0909 255.65 106.681 260.293 115.748Z" fill="#00629B"/>
</svg>
